<svg width="71" height="22" viewBox="0 0 71 22" fill="none" xmlns="http://www.w3.org/2000/svg">
  <path d="M0 21.9947V0H21.9947L16.919 5.07571H5.45169V7.89555H14.2872L9.02349 13.1593H5.45169V16.5431L0 21.9947Z" fill="#135EFF"/>
  <path d="M29.8872 6.52493H32.2257V9.75853H29.8872V21.6535H25.7874V9.75853H23.6221V6.52493H25.7874V5.31234C25.7874 3.54156 26.2397 2.21347 27.1444 1.32808C28.0683 0.442695 29.329 0 30.9265 0L32.1391 0.0577442V3.58005C32.0236 3.56081 31.8119 3.55118 31.504 3.55118C30.4261 3.55118 29.8872 4.10936 29.8872 5.22572V6.52493ZM38.5197 21.6535H34.42V0H38.5197V21.6535Z" fill="#111827"/>
  <path d="M55.4868 15.273H44.5157C44.6504 16.3123 45.0354 17.1111 45.6706 17.6693C46.3057 18.2082 47.143 18.4777 48.1824 18.4777C48.8368 18.4777 49.4238 18.343 49.9435 18.0735C50.4825 17.7848 50.8674 17.371 51.0984 16.832H55.227C54.7843 18.3718 53.9085 19.6229 52.5997 20.5853C51.3101 21.5284 49.7992 22 48.0669 22C45.8342 22 44.0056 21.259 42.5813 19.7769C41.157 18.2948 40.4448 16.3893 40.4448 14.0604C40.4448 11.8084 41.157 9.93175 42.5813 8.43044C44.0056 6.92912 45.8245 6.17847 48.038 6.17847C50.2515 6.17847 52.0511 6.92912 53.437 8.43044C54.842 9.9125 55.5446 11.7892 55.5446 14.0604L55.4868 15.273ZM48.0091 9.46981C47.0853 9.46981 46.325 9.72965 45.7283 10.2493C45.1316 10.7498 44.7467 11.4427 44.5735 12.3281H51.4448C51.2909 11.4619 50.9155 10.769 50.3189 10.2493C49.7222 9.72965 48.9523 9.46981 48.0091 9.46981Z" fill="#111827"/>
  <path d="M70.658 6.5249L65.0281 13.9738L70.8312 21.6535H65.8942L62.7183 17.063L59.5425 21.6535H54.6055L60.4086 13.9738L54.7787 6.5249H59.7157L62.7183 10.8556L65.721 6.5249H70.658Z" fill="#111827"/>
</svg>
