<svg width="15" height="15" viewBox="0 0 15 15" fill="none" xmlns="http://www.w3.org/2000/svg">
<path d="M11.7188 14.0625C11.6041 14.0628 11.4933 14.0211 11.4073 13.9453L7.5 10.471L3.59268 13.9453C3.52506 14.0054 3.44149 14.0447 3.35206 14.0583C3.26263 14.072 3.17115 14.0595 3.08867 14.0223C3.00619 13.9852 2.93622 13.9249 2.88722 13.8489C2.83821 13.7728 2.81226 13.6842 2.8125 13.5938V2.8125C2.81304 2.31539 3.01076 1.83879 3.36227 1.48727C3.71379 1.13576 4.19039 0.938043 4.6875 0.9375H10.3125C10.8096 0.938043 11.2862 1.13576 11.6377 1.48727C11.9892 1.83879 12.187 2.31539 12.1875 2.8125V13.5938C12.1875 13.7181 12.1381 13.8373 12.0502 13.9252C11.9623 14.0131 11.8431 14.0625 11.7188 14.0625Z" fill="currentColor"/>
</svg>
