<svg width="71" height="22" fill="none" xmlns="http://www.w3.org/2000/svg"><path d="M0 21.995V0h21.995l-5.076 5.076H5.452v2.82h8.835l-5.264 5.263H5.452v3.384L0 21.995z" fill="#135EFF"/><path d="M29.887 6.525h2.339v3.234h-2.339v11.895h-4.1V9.759h-2.165V6.525h2.165V5.312c0-1.77.453-3.099 1.357-3.984C28.068.443 29.33 0 30.927 0l1.212.058V3.58a4.58 4.58 0 00-.635-.029c-1.078 0-1.617.558-1.617 1.675v1.299zm8.633 15.128h-4.1V0h4.1v21.654zm16.967-6.38H44.516c.134 1.04.52 1.838 1.155 2.396.635.54 1.472.809 2.511.809.655 0 1.242-.135 1.761-.405a2.494 2.494 0 001.155-1.241h4.129c-.443 1.54-1.319 2.79-2.627 3.753-1.29.943-2.8 1.415-4.533 1.415-2.233 0-4.061-.741-5.486-2.223-1.424-1.482-2.136-3.388-2.136-5.717 0-2.252.712-4.128 2.136-5.63 1.425-1.5 3.243-2.252 5.457-2.252s4.013.751 5.399 2.252c1.405 1.482 2.108 3.36 2.108 5.63l-.058 1.213zM48.009 9.47c-.924 0-1.684.26-2.28.78-.597.5-.982 1.193-1.155 2.078h6.87c-.153-.866-.529-1.559-1.125-2.079-.597-.52-1.367-.78-2.31-.78z" fill="#111827"/><path d="M70.658 6.525l-5.63 7.449 5.803 7.68h-4.937l-3.176-4.591-3.176 4.59h-4.937l5.804-7.68-5.63-7.448h4.937l3.002 4.33 3.003-4.33h4.937z" fill="#111827"/></svg>